<svg xmlns="http://www.w3.org/2000/svg" viewBox="0 0 320 36" width="320" height="36">
  <svg x="0" y="2" width="32" height="32" viewBox="0 0 200 240">
    <polygon points="100,10 190,62 190,166 100,218 10,166 10,62" fill="#0F1B2D"/>
    <polygon points="100,10 190,62 100,114" fill="#818CF8" opacity="0.8"/>
    <polygon points="190,62 190,166 100,114" fill="#6366F1" opacity="0.8"/>
    <polygon points="190,166 100,218 100,114" fill="#4F46E5" opacity="0.8"/>
    <polygon points="100,218 10,166 100,114" fill="#312E81" opacity="0.8"/>
    <polygon points="10,166 10,62 100,114" fill="#0F1B2D" opacity="0.9"/>
    <polygon points="10,62 100,10 100,114" fill="#4F46E5" opacity="0.8"/>
    <polygon points="100,85 118,96 118,118 100,129 82,118 82,96" fill="#fff" opacity="0.9"/>
  </svg>
  <text x="42" y="25" font-family="Georgia, serif" font-size="18" font-weight="bold" fill="#F1F5F9" letter-spacing="0.2">Design Your Invention</text>
</svg>
